<?xml version="1.0" encoding="utf-8"?>
<!-- Generator: Adobe Illustrator 27.0.1, SVG Export Plug-In . SVG Version: 6.00 Build 0)  -->
<svg version="1.1" id="Слой_1" xmlns="http://www.w3.org/2000/svg" xmlns:xlink="http://www.w3.org/1999/xlink" x="0px" y="0px"
	 viewBox="0 0 56.33 27.05" style="enable-background:new 0 0 56.33 27.05;" xml:space="preserve">
<style type="text/css">
	.st0{fill-rule:evenodd;clip-rule:evenodd;fill:#90FF2A;}
</style>
<polyline class="st0" points="0,12.85 3.34,11.63 3.34,0.51 10.12,0.51 12.34,0.51 12.34,11.13 9.41,2.33 "/>
<polyline class="st0" points="17.6,10.52 18.31,0.51 14.26,1.92 22.96,0 "/>
<polyline class="st0" points="29.23,10.01 29.23,0.51 30.34,10.01 34.39,0 35.09,10.01 33.68,4.15 "/>
<polyline class="st0" points="40.76,0.51 41.46,9.1 44.8,5.97 44.8,10.01 43.59,0.91 42.78,5.26 "/>
<polyline class="st0" points="48.95,1.42 48.95,10.01 52.99,8.8 49.86,6.68 "/>
<polyline class="st0" points="54.91,1.82 54.91,9.61 56.33,1.42 "/>
<polyline class="st0" points="9.71,27.05 14.36,19.97 9.71,17.95 15.68,15.81 15.17,27.05 13.96,22.3 "/>
<polyline class="st0" points="19.42,17.14 19.82,26.44 24.88,16.43 25.79,25.83 "/>
<polyline class="st0" points="20.53,14.61 24.27,14.61 21.95,15.81 "/>
<polyline class="st0" points="30.44,17.64 31.15,25.13 36.81,23 37.42,26.44 33.93,16.94 33.17,22.6 "/>
<polyline class="st0" points="40.35,25.43 42.27,15.81 44.3,25.43 42.32,22.09 "/>
</svg>
