<?xml version="1.0" encoding="utf-8"?>
<!-- Generator: Adobe Illustrator 27.0.1, SVG Export Plug-In . SVG Version: 6.00 Build 0)  -->
<svg version="1.1" id="Слой_1" xmlns="http://www.w3.org/2000/svg" xmlns:xlink="http://www.w3.org/1999/xlink" x="0px" y="0px"
	 viewBox="0 0 200 100" style="enable-background:new 0 0 200 100;" xml:space="preserve">
<style type="text/css">
	.st0{fill:#8CC63F;}
	.st1{fill:#009245;}
</style>
<g>
	<g>
		<path class="st0" d="M33.36,40.65c0.28,1.77,0.68,3.63,1.97,4.96c1.19,1.23,2.89,1.73,4.57,1.57c3.71-0.35,6.65-3.3,8.23-6.5
			c1.86-3.78,2.15-8.05,1.95-12.2c-0.18-3.68-0.81-7.43-3.41-10.23c-1.32-1.42-3.43,0.71-2.12,2.12c1.93,2.07,2.36,5,2.51,7.72
			c0.18,3.21,0.13,6.51-0.91,9.59c-0.86,2.53-2.62,5.25-5.23,6.22c-1.13,0.42-2.57,0.54-3.47-0.41c-0.87-0.93-1.01-2.45-1.2-3.64
			C35.95,37.95,33.06,38.76,33.36,40.65L33.36,40.65z"/>
	</g>
</g>
<g>
	<g>
		<path class="st0" d="M39.77,18.89c1.91-2.96,5.52-4.31,8.91-3.25c3.39,1.06,5.3,4.48,8.02,6.54c5.75,4.35,14.08,2.45,17.56-3.78
			c0.94-1.69-1.65-3.2-2.59-1.51c-1.66,2.97-4.73,4.83-8.16,4.71c-3.88-0.14-6.15-2.83-8.7-5.36c-2.57-2.55-5.75-4.25-9.46-3.91
			c-3.39,0.32-6.33,2.23-8.16,5.06C36.13,19,38.72,20.51,39.77,18.89L39.77,18.89z"/>
	</g>
</g>
<g>
	<g>
		<path class="st0" d="M61.81,27.62c-0.82,3.17-1.63,6.33-2.45,9.5c-0.68,2.63-1.83,6.01-0.57,8.63c1.31,2.73,5.05,2.34,7.55,2.02
			c2.94-0.37,5.73-1.27,8.34-2.67c1.7-0.92,0.19-3.51-1.51-2.59c-2.1,1.13-4.38,1.9-6.75,2.25c-1.19,0.17-2.4,0.22-3.6,0.18
			c-0.91-0.04-1.4-0.23-1.53-1.19c-0.15-1.12,0.13-2.34,0.37-3.42c0.28-1.28,0.63-2.54,0.96-3.81c0.7-2.7,1.39-5.39,2.09-8.09
			C65.19,26.55,62.3,25.75,61.81,27.62L61.81,27.62z"/>
	</g>
</g>
<g>
	<g>
		<path class="st0" d="M83.24,31.16c0.07,2.27,0.14,4.56-0.46,6.77c-0.62,2.28-1.53,4.5-2.32,6.73c-0.27,0.76,0.31,1.64,1.05,1.85
			c0.83,0.23,1.57-0.28,1.85-1.05c0.82-2.3,1.78-4.6,2.38-6.97c0.61-2.39,0.58-4.87,0.51-7.32C86.18,29.23,83.18,29.23,83.24,31.16
			L83.24,31.16z"/>
	</g>
</g>
<g>
	<g>
		<path class="st0" d="M79.62,31.37c1.05-0.16,2.13,0.04,3.19-0.01c1.1-0.06,2.17-0.29,3.23-0.58c1.89-0.51,3.86-1.23,5.8-0.53
			c0.76,0.27,1.64-0.31,1.85-1.05c0.23-0.83-0.28-1.57-1.05-1.85c-2.28-0.82-4.68-0.22-6.93,0.4c-1.03,0.28-2.06,0.57-3.14,0.6
			c-1.27,0.04-2.48-0.08-3.74,0.11c-0.8,0.12-1.24,1.13-1.05,1.85C78.01,31.18,78.82,31.5,79.62,31.37L79.62,31.37z"/>
	</g>
</g>
<g>
	<g>
		<path class="st0" d="M96.89,28.41c-0.77,2.72-1.51,5.44-1.82,8.26c-0.15,1.37-0.18,2.76-0.03,4.14c0.13,1.22,0.47,2.46,1.56,3.17
			c0.56,0.37,1.18,0.45,1.82,0.58c0.59,0.11,1.16,0.3,1.75,0.4c1.22,0.2,2.43,0,3.49-0.66c2.02-1.26,3.15-3.55,4.08-5.65
			c1.22-2.76,2.1-5.63,2.57-8.61c-0.98-0.13-1.96-0.27-2.95-0.4c-0.32,2.62-0.58,5.26-0.04,7.87c0.51,2.5,1.88,4.68,3.54,6.57
			c1.27,1.46,3.39-0.67,2.12-2.12c-1.4-1.6-2.44-3.42-2.82-5.52c-0.4-2.23-0.07-4.58,0.2-6.8c0.2-1.66-2.68-2.07-2.95-0.4
			c-0.43,2.71-1.16,5.39-2.27,7.89c-0.51,1.15-1.06,2.35-1.81,3.37c-0.48,0.66-1.18,1.43-2.05,1.54c-0.54,0.07-1.07-0.15-1.58-0.27
			c-0.34-0.08-0.67-0.13-1.01-0.2c-0.12-0.02-0.52-0.16-0.47-0.1c-0.24-0.24-0.23-0.96-0.25-1.26c-0.06-0.79-0.06-1.58-0.01-2.37
			c0.17-2.95,1.01-5.82,1.81-8.64C100.31,27.35,97.42,26.55,96.89,28.41L96.89,28.41z"/>
	</g>
</g>
<g>
	<g>
		<path class="st0" d="M131.16,25.4c-1.2,4.52-1.75,9.52-0.99,14.16c0.34,2.06,1.74,4.25,4.06,4.3c2.02,0.04,4-1.69,5.15-3.22
			c1.3-1.73,1.2-4.03-0.5-5.48c-1.34-1.14-4.9-2.68-5.97-0.5c-0.49,1-0.04,2.17,0.86,2.75c0.9,0.58,2.25,0.65,3.28,0.67
			c2.03,0.05,4.07-0.45,5.87-1.37c4.06-2.08,6.53-6.59,6.32-11.11c-0.09-1.97-2.78-1.88-3,0c-0.64,5.43-1.26,10.91-0.57,16.37
			c0.1,0.8,0.62,1.5,1.5,1.5c0.73,0,1.6-0.69,1.5-1.5c-0.69-5.46-0.07-10.94,0.57-16.37c-1,0-2,0-3,0c0.13,2.83-0.99,5.57-3.16,7.43
			c-1.05,0.89-2.34,1.49-3.67,1.81c-0.69,0.17-1.38,0.25-2.1,0.24c-0.37,0-0.75-0.01-1.12-0.06c-0.15-0.02-0.3-0.05-0.45-0.08
			c-0.08-0.01-0.17-0.03-0.25-0.06c-0.37-0.12-0.29,0.12,0.23,0.74c-0.13,0.22-0.26,0.44-0.39,0.66c0.05-0.04,0.09-0.08,0.14-0.13
			c-0.22,0.13-0.44,0.26-0.66,0.39c-0.23-0.02-0.25-0.02-0.05,0.02c0.14,0.03,0.27,0.07,0.41,0.1c0.27,0.07,0.55,0.14,0.81,0.24
			c0.34,0.13,0.69,0.28,0.96,0.54c0.55,0.52,0.35,1.04-0.09,1.56c-0.53,0.64-1.34,1.41-2.12,1.74c-0.74,0.32-1.21-0.33-1.44-0.98
			c-0.36-1.01-0.35-2.18-0.4-3.24c-0.05-1.15-0.04-2.31,0.03-3.46c0.13-2.33,0.52-4.63,1.12-6.89
			C134.55,24.33,131.66,23.53,131.16,25.4L131.16,25.4z"/>
	</g>
</g>
<g>
	<g>
		<path class="st1" d="M50.86,71.37c0.9,4.13,5.7,5.35,9.27,4.13c3.47-1.19,7.48-3.96,7.86-7.91c0.19-1.99-0.81-4.03-1.87-5.66
			c-1-1.54-2.58-3.94-4.72-3.52c-2.12,0.42-3.18,2.81-3,4.8c0.18,1.95,1.33,3.65,3.02,4.62c1.91,1.1,4.56,1.36,6.2-0.37
			c0.7-0.75,1.09-1.71,1.43-2.66c0.44-1.26,0.84-2.54,1.26-3.81c-0.96-0.27-1.93-0.53-2.89-0.8c-0.65,4.06-1.54,8.53-0.7,12.62
			c0.36,1.74,1.2,3.67,2.66,4.76c1.72,1.29,4.16,0.45,4.33-1.79c0.15-1.93-2.86-1.92-3,0c-0.01,0.08-0.01,0.16-0.02,0.23
			c0.07-0.25,0.14-0.5,0.2-0.76c0.13,0.01,0.26,0,0.39-0.01c-0.05-0.03-0.1-0.07-0.15-0.1c-0.07-0.18-0.39-0.42-0.51-0.61
			c-0.32-0.47-0.57-0.98-0.74-1.51c-0.37-1.14-0.47-2.32-0.46-3.51c0.01-2.85,0.46-5.72,0.91-8.53c0.3-1.88-2.27-2.67-2.89-0.8
			c-0.51,1.54-0.85,3.36-1.67,4.77c-0.71,1.24-2.27,0.74-3.22,0.01c-0.59-0.45-1.03-1.11-1.13-1.86c-0.05-0.41-0.02-1.54,0.49-1.73
			c0.08-0.03,1.05,1.19,1.26,1.48c0.51,0.7,0.95,1.45,1.32,2.23c0.65,1.38,0.76,2.66-0.11,3.96c-0.82,1.21-2.09,2.08-3.35,2.78
			c-2.17,1.21-6.49,2.16-7.24-1.27C53.34,68.69,50.45,69.48,50.86,71.37L50.86,71.37z"/>
	</g>
</g>
<g>
	<g>
		<path class="st1" d="M77.59,57.82c-0.91,4.61-1.37,10.52,1.96,14.3c0.75,0.86,1.66,1.56,2.57,2.24c0.95,0.71,2.01,1.48,3.25,1.44
			c2.65-0.09,3.2-3.24,3.51-5.29c0.45-2.99,0.63-6.04,0.91-9.05c-1,0-2,0-3,0c0.15,2.53,0.5,5.05,1.05,7.52
			c0.51,2.25,1.14,4.5,2.74,6.24c1.31,1.43,3.42-0.7,2.12-2.12c-1.27-1.39-1.64-3.43-2.03-5.21c-0.46-2.12-0.75-4.27-0.88-6.43
			c-0.12-1.95-2.82-1.91-3,0c-0.25,2.65-0.41,5.32-0.76,7.96c-0.15,1.1-0.34,2.27-0.78,3.3c-0.18,0.42-0.15,0.1-0.05,0.1
			c0.2,0.01-0.31-0.18-0.39-0.23c-0.49-0.27-0.95-0.64-1.4-0.99c-1.84-1.42-2.98-3.04-3.3-5.38c-0.34-2.5-0.13-5.14,0.35-7.6
			c0.16-0.79-0.23-1.62-1.05-1.85C78.69,56.57,77.74,57.02,77.59,57.82L77.59,57.82z"/>
	</g>
</g>
<g>
	<g>
		<path class="st1" d="M82.44,54.58c2.06,0.04,4.12,0.2,6.17,0.47c0.35,0.05,0.82-0.2,1.06-0.44c0.26-0.26,0.46-0.69,0.44-1.06
			c-0.02-0.39-0.14-0.79-0.44-1.06c-0.31-0.29-0.64-0.38-1.06-0.44c-2.05-0.27-4.11-0.43-6.17-0.47c-0.78-0.02-1.54,0.7-1.5,1.5
			C80.98,53.91,81.6,54.57,82.44,54.58L82.44,54.58z"/>
	</g>
</g>
<g>
	<g>
		<path class="st1" d="M95.72,56.83c-0.92,2.91-1.56,6.2-1.17,9.25c0.35,2.72,2.02,5.54,4.94,6c3.11,0.49,4.86-2.74,5.98-5.13
			c1.27-2.71,1.97-5.6,2.07-8.59c0.05-1.66-2.62-2.08-2.95-0.4c-0.82,4.18,0.79,8.31,4.17,10.88c1.22,0.93,2.75,1.99,2.02,3.74
			c-0.6,1.43-2.49,1.61-3.54,0.58c-0.1,0.79-0.2,1.57-0.3,2.36c1.69-1.02,3.55-1.38,5.5-1.14c0.81,0.1,1.5-0.76,1.5-1.5
			c0-0.89-0.69-1.4-1.5-1.5c-2.44-0.29-4.92,0.28-7.02,1.55c-0.82,0.49-1,1.67-0.3,2.36c1.7,1.67,4.48,2.06,6.52,0.74
			c1.93-1.25,2.81-3.87,2.05-6.03c-0.83-2.37-3.27-3.18-4.71-5.05c-1.33-1.72-1.91-4.05-1.49-6.18c-0.98-0.13-1.96-0.27-2.95-0.4
			c-0.07,2.17-0.52,4.32-1.33,6.33c-0.4,0.99-0.91,1.95-1.48,2.85c-0.4,0.63-0.94,1.76-1.84,1.58c-1.92-0.37-2.43-2.84-2.45-4.45
			c-0.03-2.39,0.45-4.78,1.17-7.05C99.2,55.79,96.3,55,95.72,56.83L95.72,56.83z"/>
	</g>
</g>
<g>
	<g>
		<path class="st1" d="M119.04,73.88c0.67-6.76,1.77-13.46,3.29-20.08c-0.96,0-1.93,0-2.89,0c0.74,3.11,1.81,6.13,3.17,9.02
			c0.69,1.47,1.48,2.87,2.28,4.28c0.37,0.66,0.75,1.32,1.1,1.99c0.3,0.59,0.93,1.51,0.88,2.17c0.07-0.25,0.14-0.5,0.2-0.76
			c0.14-0.09,0.28-0.18,0.42-0.27c0.27,0,0.53,0,0.8,0c-0.07-0.01-0.14-0.03-0.21-0.04c-1.88-0.4-2.69,2.49-0.8,2.89
			c0.88,0.19,1.77-0.06,2.27-0.86c0.52-0.82,0.32-1.74-0.02-2.58c-0.79-1.94-1.88-3.72-2.9-5.55c-1.94-3.49-3.37-7.21-4.3-11.1
			c-0.34-1.42-2.56-1.44-2.89,0c-1.58,6.88-2.7,13.86-3.39,20.88C115.86,75.8,118.86,75.79,119.04,73.88L119.04,73.88z"/>
	</g>
</g>
<g>
	<g>
		<path class="st1" d="M117.69,67.25c2.51,0.31,5.19-0.39,7.24-1.87c0.63-0.46,1.01-1.33,0.54-2.05c-0.41-0.63-1.37-1.03-2.05-0.54
			c-0.46,0.33-0.96,0.63-1.47,0.87c-0.06,0.03-0.13,0.06-0.2,0.09c0.19-0.08,0.21-0.09,0.06-0.03c-0.1,0.04-0.2,0.08-0.3,0.11
			c-0.27,0.1-0.54,0.18-0.82,0.25c-0.28,0.07-0.56,0.12-0.84,0.17c-0.36,0.07,0.34-0.03-0.03,0c-0.14,0.01-0.28,0.03-0.43,0.04
			c-0.57,0.04-1.14,0.02-1.71-0.05c-0.35-0.04-0.82,0.2-1.06,0.44c-0.26,0.26-0.46,0.69-0.44,1.06c0.02,0.39,0.14,0.79,0.44,1.06
			C116.94,67.1,117.27,67.2,117.69,67.25L117.69,67.25z"/>
	</g>
</g>
</svg>
