<?xml version="1.0" encoding="utf-8"?>
<!-- Generator: Adobe Illustrator 27.0.1, SVG Export Plug-In . SVG Version: 6.00 Build 0)  -->
<svg version="1.1" id="Слой_1" xmlns="http://www.w3.org/2000/svg" xmlns:xlink="http://www.w3.org/1999/xlink" x="0px" y="0px"
	 viewBox="0 0 83 40" style="enable-background:new 0 0 83 40;" xml:space="preserve">
<style type="text/css">
	.st0{fill-rule:evenodd;clip-rule:evenodd;fill:#FB4516;}
</style>
<path class="st0" d="M81.99,11.93c0,0,0.35-0.94,0.35-1.75c0-1.17-0.94-2.11-2.22-2.11c-1.29,0-1.99,0.7-2.22,1.52l-2.69,8.89h-0.35
	l-3.04-8.89c-0.23-0.7-0.94-1.52-2.22-1.52c-1.4,0-2.22,0.94-2.22,2.11c0,0.82,0.35,1.75,0.35,1.75l4.91,12.98l-2.69,7.37
	c0,0-0.35,0.94-0.35,1.75c0,1.17,0.94,2.11,2.22,2.11c1.29,0,1.99-0.7,2.22-1.52L81.99,11.93z"/>
<path class="st0" d="M64.44,16.84c0-5.38-3.74-9.12-8.19-9.12s-8.19,3.74-8.19,9.12s3.74,9.12,8.19,9.12S64.44,22.22,64.44,16.84z
	 M52.63,16.84c0-3.16,1.87-5.03,3.63-5.03c1.75,0,3.74,1.87,3.74,5.03s-1.87,5.03-3.74,5.03C54.39,21.87,52.63,20,52.63,16.84z"/>
<path class="st0" d="M39.18,2.46c0,1.4,1.05,2.46,2.46,2.46s2.46-1.05,2.46-2.46S43.04,0,41.64,0C40.35,0,39.18,1.05,39.18,2.46z"/>
<path class="st0" d="M43.86,26.78c0-5.5,0-11.46,0-16.96c0-1.17-0.94-2.11-2.22-2.11c-1.4,0-2.34,0.94-2.22,2.11v16.61
	c0,2.22-0.7,4.21-1.87,6.08c-1.05,1.52,0,3.63,1.87,3.63c0.82,0,1.52-0.47,1.87-1.05C42.92,32.51,43.86,29.82,43.86,26.78z"/>
<path class="st0" d="M19.88,23.51c0,1.17,0.94,2.11,2.22,2.11c1.29,0,2.22-0.94,2.22-2.11v-8.54c0,0,1.17-3.16,3.39-3.16
	c1.52,0,2.69,1.17,2.69,3.16v8.54c0,1.17,0.94,2.11,2.22,2.11c1.29,0,2.22-0.94,2.22-2.11v-8.54c0-4.68-2.46-7.13-5.61-7.13
	c-3.51,0.12-4.68,2.69-4.68,2.69h-0.23v-0.35c0-1.17-0.94-2.11-2.22-2.11c-1.29,0-2.22,0.94-2.22,2.11V23.51z"/>
<path class="st0" d="M15.67,16.49c0-5.5-3.27-8.77-7.6-8.77C3.74,7.72,0,11.58,0,16.96c0,5.5,3.63,9.12,8.07,9.12
	c4.09,0,6.78-2.57,6.78-4.33c0-1.05-0.82-1.87-2.22-1.87c-1.75,0-1.99,2.11-4.56,2.11c-1.75,0-3.27-1.29-3.63-3.39h9.01
	C14.74,18.48,15.67,17.66,15.67,16.49z M4.68,14.97c0.23-1.99,1.64-3.27,3.39-3.27c1.75,0,2.92,1.17,3.16,3.16H4.68V14.97z"/>
<path class="st0" d="M17.43,35.56c4.33,0,8.54-1.52,11.7-4.44c0.47-0.47,1.05-1.05,1.4-1.52c0.47-0.7,1.05-1.17,1.99-1.17
	c1.17,0,2.22,0.94,2.22,2.22c0,0.47-0.12,0.94-0.47,1.29c-0.7,0.94-1.4,1.75-2.22,2.46C28.07,38.13,22.81,40,17.31,40
	c-5.73,0-10.99-2.22-14.74-5.61c-0.7-0.82-1.4-1.64-2.11-2.46C0.12,31.46,0,30.99,0,30.53c0-1.17,0.94-2.22,2.22-2.22
	c1.05,0,1.52,0.47,1.99,1.17c0.47,0.58,0.94,1.05,1.4,1.52C8.65,33.92,12.87,35.56,17.43,35.56z"/>
</svg>
