<?xml version="1.0" encoding="utf-8"?>
<!-- Generator: Adobe Illustrator 27.0.1, SVG Export Plug-In . SVG Version: 6.00 Build 0)  -->
<svg version="1.1" id="Слой_1" xmlns="http://www.w3.org/2000/svg" xmlns:xlink="http://www.w3.org/1999/xlink" x="0px" y="0px"
	 viewBox="0 0 83 40" style="enable-background:new 0 0 83 40;" xml:space="preserve">
<style type="text/css">
	.st0{fill-rule:evenodd;clip-rule:evenodd;fill:#90FF2A;}
</style>
<polyline class="st0" points="11.58,16.83 14.92,15.61 14.92,4.49 21.7,4.49 23.92,4.49 23.92,15.11 20.99,6.31 "/>
<polyline class="st0" points="29.18,14.5 29.89,4.49 25.84,5.9 34.54,3.98 "/>
<polyline class="st0" points="40.81,13.99 40.81,4.49 41.92,13.99 45.97,3.98 46.67,13.99 45.26,8.13 "/>
<polyline class="st0" points="52.34,4.49 53.04,13.08 56.38,9.95 56.38,13.99 55.17,4.89 54.36,9.24 "/>
<polyline class="st0" points="60.53,5.4 60.53,13.99 64.57,12.78 61.44,10.66 "/>
<polyline class="st0" points="66.49,5.8 66.49,13.59 67.91,5.4 "/>
<polyline class="st0" points="21.29,31.03 25.94,23.95 21.29,21.93 27.26,19.79 26.75,31.03 25.54,26.28 "/>
<polyline class="st0" points="31,21.12 31.4,30.42 36.46,20.41 37.37,29.81 "/>
<polyline class="st0" points="32.11,18.59 35.85,18.59 33.53,19.79 "/>
<polyline class="st0" points="42.02,21.62 42.73,29.11 48.39,26.98 49,30.42 45.51,20.92 44.75,26.58 "/>
<polyline class="st0" points="51.93,29.41 53.85,19.79 55.88,29.41 53.9,26.07 "/>
</svg>
