<?xml version="1.0" encoding="utf-8"?>
<!-- Generator: Adobe Illustrator 27.0.1, SVG Export Plug-In . SVG Version: 6.00 Build 0)  -->
<svg version="1.1" id="Слой_1" xmlns="http://www.w3.org/2000/svg" xmlns:xlink="http://www.w3.org/1999/xlink" x="0px" y="0px"
	 viewBox="0 0 100 50" style="enable-background:new 0 0 100 50;" xml:space="preserve">
<g>
	<g>
		<path d="M9.35,16.69c-0.6-2.15-0.2-4.38,0.13-6.55C9.66,8.97,9.83,7.8,9.89,6.62c0.03-0.55,0.04-1.1,0.04-1.65
			c0-0.28-0.01-0.55-0.02-0.83C9.9,3.96,9.89,3.77,9.87,3.59c0-0.27-0.01-0.26-0.04,0.05C9.65,3.82,9.47,4,9.29,4.18
			c-0.48,0.05-0.52,0.1-0.12,0.15c0.09,0.02,0.18,0.04,0.27,0.06c0.27,0.05,0.55,0.1,0.83,0.15c0.59,0.09,1.19,0.17,1.78,0.24
			c1.07,0.11,2.14,0.17,3.21,0.21c1.08,0.04,2.15,0.06,3.23,0.1c0.56,0.02,1.12,0.05,1.68,0.09c0.29,0.02,1-0.02,1.19,0.13
			c-0.18-0.18-0.36-0.36-0.54-0.54c0.03,0.06,0.06,0.12,0.09,0.17c-0.07-0.25-0.14-0.5-0.2-0.76c0.04,0.37-0.28,1-0.43,1.42
			c-0.21,0.57-0.43,1.13-0.65,1.69c-0.43,1.08-0.87,2.15-1.28,3.24c-0.83,2.23-1.44,4.54-1.46,6.94c-0.02,1.93,2.98,1.93,3,0
			c0.03-2.87,1.1-5.56,2.15-8.19c0.54-1.34,1.17-2.7,1.55-4.1c0.21-0.76,0.19-1.64-0.41-2.24c-0.65-0.65-1.59-0.66-2.45-0.73
			c-3.13-0.26-6.29-0.09-9.4-0.53C9.87,1.47,7.88,0.65,7.06,2.45c-0.32,0.69-0.15,1.5-0.14,2.24c0.02,0.78,0,1.56-0.06,2.34
			c-0.26,3.51-1.39,6.95-0.41,10.45C6.98,19.34,9.87,18.55,9.35,16.69L9.35,16.69z"/>
	</g>
</g>
<g>
	<g>
		<path d="M28.06,10.35c-0.36-0.13-0.58-0.35-0.67-0.67c0.02,0.05,0.03,0.1,0.04,0.15c0.02,0.1,0.01,0.07-0.01-0.09
			c0.01,0.08,0.02,0.16,0.02,0.24c0.03,0.35,0.06,0.7,0.08,1.05c0.03,0.68,0.04,1.35,0.03,2.03c-0.02,0.68-0.06,1.35-0.13,2.02
			c-0.02,0.16-0.04,0.32-0.05,0.48c-0.04,0.33,0.01-0.05-0.03,0.24c-0.06,0.37-0.12,0.75-0.19,1.12c-0.14,0.77,0.21,1.65,1.05,1.85
			c0.74,0.17,1.69-0.22,1.85-1.05c0.33-1.75,0.51-3.53,0.51-5.32c0-0.84-0.04-1.68-0.12-2.51c-0.1-1.02-0.38-2.21-1.57-2.45
			c-0.77-0.15-1.66,0.22-1.85,1.05C26.85,9.25,27.24,10.19,28.06,10.35L28.06,10.35z"/>
	</g>
</g>
<g>
	<g>
		<path d="M25.48,9.81c1.51-0.04,3.02-0.21,4.51-0.49c0.69-0.13,1.38-0.3,2.07-0.45c0.34-0.08,0.69-0.14,1.04-0.2
			c0.32-0.05-0.05-0.01,0.24-0.03c0.22-0.02,0.43-0.03,0.65-0.04c0.78-0.02,1.54-0.67,1.5-1.5c-0.04-0.79-0.66-1.52-1.5-1.5
			C32.45,5.64,31,6.06,29.51,6.37c-0.34,0.07-0.69,0.13-1.04,0.19c-0.16,0.03-0.32,0.05-0.48,0.07c0.22-0.03-0.27,0.03-0.33,0.04
			c-0.73,0.08-1.46,0.13-2.19,0.15c-0.78,0.02-1.54,0.68-1.5,1.5C24.01,9.11,24.64,9.83,25.48,9.81L25.48,9.81z"/>
	</g>
</g>
<g>
	<g>
		<path d="M38.49,7.26c-0.33,1.77-0.66,3.53-0.99,5.3c-0.31,1.64-0.94,3.57,0.14,5.06c0.95,1.32,2.57,1.84,4.14,1.59
			c1.51-0.24,2.77-1.44,3.5-2.73c0.95-1.69,1.08-3.61,1.47-5.46c-0.98-0.13-1.96-0.27-2.95-0.4c0,1.53,0,3.06,0,4.59
			c0,0.73-0.03,1.49,0.24,2.19c0.32,0.84,0.93,1.46,1.8,1.73c0.75,0.23,1.67-0.27,1.85-1.05c0.18-0.81-0.24-1.6-1.05-1.85
			c0.05,0.02,0.29,0.22,0.16,0.09c-0.14-0.14,0.09,0.07,0.06,0.1c0.04,0.11,0.03,0.08-0.03-0.1c-0.01-0.06-0.02-0.11-0.03-0.17
			c0.02,0.15,0.01-0.07,0.01-0.11c0-0.6,0-1.2,0-1.81c0-1.21,0-2.41,0-3.62c0-1.65-2.59-2.09-2.95-0.4
			c-0.19,0.92-0.31,1.84-0.5,2.76c-0.09,0.43-0.19,0.85-0.34,1.26c-0.01,0.04-0.16,0.42-0.06,0.19c-0.08,0.18-0.17,0.36-0.27,0.53
			c-0.09,0.15-0.18,0.3-0.28,0.44c-0.06,0.08-0.06,0.08,0.01-0.01c-0.06,0.08-0.13,0.15-0.19,0.22c-0.13,0.14-0.27,0.28-0.42,0.4
			c0.2-0.15-0.13,0.07-0.17,0.09c-0.08,0.05-0.17,0.09-0.26,0.13c0.13-0.06,0.12-0.06-0.03,0c-0.07,0.01-0.44,0.06-0.09,0.04
			c-0.17,0.01-0.33,0.01-0.5,0c0.36,0.02-0.07-0.03-0.16-0.05c-0.06-0.02-0.12-0.04-0.18-0.06c0.17,0.07,0.17,0.08,0.02,0
			c-0.09-0.05-0.43-0.35-0.2-0.11c-0.06-0.06-0.27-0.33-0.08-0.05c-0.05-0.07-0.09-0.13-0.12-0.2c0.07,0.18,0.07,0.18,0.01,0.02
			c-0.01-0.18-0.02-0.52,0.02-0.73c0.09-0.45,0.17-0.9,0.25-1.35c0.35-1.9,0.71-3.79,1.06-5.69c0.14-0.77-0.21-1.65-1.05-1.85
			C39.6,6.05,38.65,6.44,38.49,7.26L38.49,7.26z"/>
	</g>
</g>
<g>
	<g>
		<path d="M54.74,7.48c-0.41,1.99-0.79,3.99-1.14,5.99c-0.3,1.73-1.2,4.27,0.16,5.75c1.23,1.33,3.28,1.08,4.9,0.87
			c2.03-0.26,4-0.74,5.91-1.5c1.09-0.44,1.43-1.58,0.66-2.51c-2.06-2.48-4.99-4.91-8.43-3.8c-1.22,0.39-1.49,2.06-0.36,2.74
			c2.9,1.75,6.59-0.32,9.29-1.52c2.61-1.16,5.73-2.31,6.65-5.3c-0.98-0.13-1.96-0.27-2.95-0.4c-0.01,4.1-1.61,8.01-0.81,12.13
			c0.15,0.8,1.11,1.25,1.85,1.05c0.83-0.23,1.2-1.05,1.05-1.85c-0.73-3.76,0.9-7.57,0.91-11.34c0-1.72-2.45-2-2.95-0.4
			c-0.26,0.84-0.98,1.37-1.71,1.8c-1.05,0.62-2.19,1.09-3.29,1.59c-1.18,0.53-2.37,1.06-3.6,1.47c-0.92,0.31-2.05,0.72-2.95,0.17
			c-0.12,0.91-0.24,1.83-0.36,2.74c2.34-0.75,4.19,1.43,5.51,3.03c0.22-0.84,0.44-1.67,0.66-2.51c-1.49,0.6-3.03,1.05-4.62,1.32
			c-0.66,0.11-1.32,0.18-1.99,0.22c-0.33,0.02-0.65,0.02-0.98,0.01c-0.35-0.02-0.25-0.2-0.19-0.01c-0.09-0.32,0.23-1.41,0.31-1.87
			c0.12-0.72,0.25-1.44,0.37-2.16c0.29-1.64,0.61-3.28,0.95-4.91C58.02,6.39,55.13,5.58,54.74,7.48L54.74,7.48z"/>
	</g>
</g>
<g>
	<g>
		<path d="M6.1,37.44c0.24,0.89,1.03,1.41,1.94,1.39c0.86-0.02,1.68-0.53,2.39-0.99c1.3-0.83,2.46-1.87,3.47-3.03
			c1.04-1.18,1.97-2.46,2.83-3.76c0.92-1.4,1.79-2.97,2.11-4.63c0.29-1.51,0.12-3.15-1-4.3c-1.16-1.18-3.06-1.34-4.56-0.79
			c-1.48,0.54-2.83,1.57-4.12,2.47c-1.34,0.94-2.48,2.16-2.62,3.87c-0.36,4.29,5.72,4.54,8.55,3.58c0.77-0.26,1.27-1.03,1.05-1.85
			c-0.21-0.75-1.07-1.31-1.85-1.05c-1.06,0.36-2.21,0.33-3.32,0.25c-0.45-0.03-1.29-0.1-1.44-0.53c-0.23-0.66,0.7-1.39,1.14-1.7
			c0.9-0.63,1.83-1.28,2.78-1.84c0.57-0.33,1.51-0.8,2.15-0.39c0.53,0.34,0.41,1.22,0.28,1.76c-0.5,2.1-1.9,4-3.2,5.68
			c-0.72,0.94-1.52,1.83-2.41,2.61c-0.43,0.39-0.88,0.73-1.37,1.04c-0.23,0.15-0.47,0.29-0.71,0.42c-0.42,0.23-0.34,0.06-0.14,0.15
			c0.22,0.13,0.44,0.26,0.66,0.39c-0.03-0.03-0.06-0.06-0.09-0.09c0.13,0.22,0.26,0.44,0.39,0.66C9.01,36.73,9,36.69,8.99,36.65
			C8.49,34.78,5.6,35.57,6.1,37.44L6.1,37.44z"/>
	</g>
</g>
<g>
	<g>
		<path d="M17.46,22.06c-0.5,3.01-0.72,6.06-0.58,9.12c0.07,1.45,0.12,2.97,0.8,4.28c0.63,1.21,1.73,2.04,2.99,2.5
			c0.76,0.28,1.64-0.31,1.85-1.05c0.23-0.84-0.28-1.56-1.05-1.85c-1.87-0.69-1.6-3.4-1.63-4.99c-0.04-2.42,0.12-4.84,0.51-7.23
			c0.13-0.8-0.21-1.61-1.05-1.85C18.59,20.81,17.6,21.25,17.46,22.06L17.46,22.06z"/>
	</g>
</g>
<g>
	<g>
		<path d="M30.91,24.35c-0.69,1.13-0.56,2.53-0.59,3.8c-0.03,1.3-0.07,2.61-0.09,3.91c-0.05,2.42,0.46,4.7,2.54,6.18
			c1.01,0.71,2.34,1.13,3.56,0.78c1.09-0.31,1.84-1.24,2.41-2.15c1.31-2.09,2.25-4.44,2.9-6.81c-0.98-0.13-1.96-0.27-2.95-0.4
			c0.05,1.68,0.18,3.35,0.4,5.02c0.11,0.8,0.61,1.5,1.5,1.5c0.73,0,1.61-0.69,1.5-1.5c-0.22-1.67-0.35-3.34-0.4-5.02
			c-0.05-1.67-2.49-2.07-2.95-0.4c-0.48,1.78-1.13,3.5-2.02,5.12c-0.31,0.57-0.72,1.42-1.16,1.71c-0.3,0.2-0.96-0.18-1.27-0.44
			c-1.27-1.04-1.09-2.75-1.05-4.3c0.02-0.98,0.05-1.97,0.07-2.95c0.01-0.49,0.02-0.98,0.04-1.48c0.01-0.37-0.04-0.74,0.16-1.05
			C34.51,24.22,31.91,22.71,30.91,24.35L30.91,24.35z"/>
	</g>
</g>
<g>
	<g>
		<path d="M33.88,23.38c0.32,0.14,0.64,0.28,0.98,0.35c0.33,0.07,0.67,0.12,1,0.13c0.34,0.01,0.67-0.03,1.01-0.08
			c0.23-0.03,0.46-0.09,0.68-0.17c0.37-0.13,0.69-0.34,0.9-0.69c0.19-0.32,0.27-0.8,0.15-1.16c-0.12-0.36-0.34-0.71-0.69-0.9
			c-0.34-0.18-0.78-0.29-1.16-0.15c-0.22,0.08-0.44,0.13-0.68,0.17c0.13-0.02,0.27-0.04,0.4-0.05c-0.32,0.04-0.64,0.04-0.96,0
			c0.13,0.02,0.27,0.04,0.4,0.05c-0.29-0.04-0.57-0.12-0.84-0.23c0.12,0.05,0.24,0.1,0.36,0.15c-0.01-0.01-0.03-0.01-0.04-0.02
			c-0.17-0.11-0.36-0.17-0.56-0.18c-0.2-0.04-0.4-0.04-0.6,0.03c-0.35,0.1-0.72,0.36-0.9,0.69c-0.18,0.35-0.28,0.77-0.15,1.16
			c0.05,0.12,0.1,0.24,0.15,0.36C33.48,23.07,33.66,23.25,33.88,23.38L33.88,23.38z"/>
	</g>
</g>
<g>
	<g>
		<path d="M46.12,26.47c-0.23,1.26-0.47,2.52-0.7,3.78c-0.23,1.24-0.45,2.52-0.02,3.75c0.7,2.01,2.68,3.34,4.64,3.96
			c2.25,0.71,4.59-0.09,5.71-2.22c1.08-2.07,1.03-4.72,1.27-6.99c0.18-1.7-2.53-2-2.95-0.4c-0.61,2.33-1.14,4.82-0.19,7.13
			c0.42,1.02,1.09,1.98,2.09,2.52c1.21,0.64,2.22,0.41,3.36-0.2c-0.25,0.07-0.5,0.14-0.76,0.2c0.08-0.01,0.15-0.01,0.23-0.02
			c-0.25-0.07-0.5-0.14-0.76-0.2c-0.18-0.23-0.19-0.2-0.01,0.09c0.08,0.16,0.16,0.32,0.24,0.49c0.13,0.3,0.24,0.6,0.33,0.91
			c0.11,0.35,0.2,0.7,0.26,1.06c0.05,0.28,0.02,0.64,0.11,0.9c0.02,0.09,0.01,0.18-0.01,0.26c0.37-0.2,0.46-0.3,0.25-0.32
			c-0.12-0.11-0.7-0.14-0.87-0.18c-0.67-0.18-1.29-0.45-1.9-0.79c-1.69-0.94-3.2,1.65-1.51,2.59c1.66,0.93,4.67,2.27,6.3,0.62
			c1.54-1.57,0.5-4.61-0.25-6.32c-0.44-1.01-1.02-2.12-2.29-2.1c-0.36,0.01-0.66,0.1-0.98,0.27c-0.11,0.05-0.21,0.12-0.31,0.19
			c0.05-0.01,0.1-0.03,0.16-0.04c-0.22-0.06-0.4-0.21-0.54-0.39c-1.29-1.6-0.51-4.13-0.05-5.88c-0.98-0.13-1.96-0.27-2.95-0.4
			c-0.17,1.61-0.2,3.33-0.65,4.9c-0.15,0.52-0.41,1.09-0.88,1.4c-0.57,0.37-1.31,0.17-1.91-0.06c-1-0.38-2.28-1.13-2.43-2.3
			c-0.11-0.83,0.18-1.73,0.33-2.54c0.18-0.96,0.36-1.91,0.53-2.87c0.15-0.8-0.22-1.62-1.05-1.85
			C47.23,25.23,46.26,25.67,46.12,26.47L46.12,26.47z"/>
	</g>
</g>
<g>
	<g>
		<path d="M66.51,37.67c0.01-0.99,0.33-1.92,0.66-2.85c0.38-1.09,0.77-2.17,1.16-3.26c0.76-2.14,1.53-4.28,2.29-6.42
			c-0.98-0.13-1.96-0.27-2.95-0.4c-0.21,4.7,1.62,9.09,3.42,13.34c0.32,0.75,1.42,0.91,2.05,0.54c0.77-0.45,0.86-1.3,0.54-2.05
			c-1.59-3.75-3.19-7.67-3.01-11.82c0.03-0.74-0.6-1.39-1.3-1.47c-0.77-0.09-1.39,0.35-1.65,1.07c-0.79,2.22-1.59,4.44-2.38,6.67
			c-0.76,2.14-1.82,4.35-1.84,6.66C63.49,39.6,66.49,39.61,66.51,37.67L66.51,37.67z"/>
	</g>
</g>
<g>
	<g>
		<path d="M64.95,35.92c1.28,0.28,2.6,0.38,3.9,0.23c0.21,0.01,0.4-0.04,0.58-0.13c0.19-0.06,0.35-0.16,0.48-0.31
			c0.26-0.26,0.46-0.69,0.44-1.06c-0.02-0.39-0.14-0.79-0.44-1.06c-0.27-0.25-0.67-0.49-1.06-0.44c-0.86,0.1-1.73,0.1-2.59-0.01
			c0.13,0.02,0.27,0.04,0.4,0.05c-0.31-0.04-0.61-0.1-0.92-0.16c-0.39-0.09-0.8-0.06-1.16,0.15c-0.31,0.18-0.61,0.54-0.69,0.9
			c-0.09,0.38-0.07,0.81,0.15,1.16C64.26,35.55,64.56,35.83,64.95,35.92L64.95,35.92z"/>
	</g>
</g>
</svg>
